<svg width="24" height="20" viewBox="0 0 24 20" fill="none" xmlns="http://www.w3.org/2000/svg">
<path d="M23.7295 13.5265L18.1922 19.2263C18.0158 19.4019 17.78 19.5 17.5347 19.5C17.2893 19.5 17.0535 19.4019 16.8771 19.2263C16.7038 19.0462 16.6066 18.8029 16.6066 18.5494C16.6066 18.2959 16.7038 18.0527 16.8771 17.8726L20.8455 13.7996H11.9974C8.81737 13.7933 5.76932 12.4902 3.52069 10.1755C1.27206 7.86089 0.00609788 4.72336 0 1.44997C0 1.19802 0.0972314 0.956394 0.270304 0.77824C0.443377 0.600086 0.678115 0.5 0.922877 0.5C1.16764 0.5 1.40238 0.600086 1.57545 0.77824C1.74852 0.956394 1.84575 1.19802 1.84575 1.44997C1.84881 4.22043 2.91933 6.87652 4.82248 8.83553C6.72562 10.7945 9.30596 11.8965 11.9974 11.8996H20.8455L16.8771 7.82664C16.73 7.64207 16.6547 7.40774 16.6661 7.16925C16.6775 6.93076 16.7747 6.70515 16.9387 6.53631C17.1027 6.36747 17.3219 6.26746 17.5536 6.25575C17.7853 6.24404 18.0129 6.32145 18.1922 6.47294L23.7295 12.1728C23.9028 12.3529 24 12.5961 24 12.8496C24 13.1031 23.9028 13.3464 23.7295 13.5265Z" fill="url(#paint0_linear_23_97)"/>
<defs>
<linearGradient id="paint0_linear_23_97" x1="31" y1="6.5" x2="-8.5" y2="10.5" gradientUnits="userSpaceOnUse">
<stop stop-color="#ACCA38"/>
<stop offset="1"/>
</linearGradient>
</defs>
</svg>
