<svg width="304" height="32" viewBox="0 0 304 32" fill="none" xmlns="http://www.w3.org/2000/svg">
<path d="M10.6865 31.8804H11.2538C11.3323 31.8804 11.3759 31.8365 11.3759 31.7574V26.456H12.65C12.7285 26.456 12.7722 26.412 12.7722 26.3329V25.8493C12.7722 25.7702 12.7285 25.7263 12.65 25.7263H9.29028C9.21174 25.7263 9.15938 25.7702 9.15938 25.8493V26.3329C9.15938 26.412 9.21174 26.456 9.29028 26.456H10.5644V31.7574C10.5644 31.8365 10.608 31.8804 10.6865 31.8804Z" fill="white"/>
<path d="M14.1519 31.8804H14.7191C14.7977 31.8804 14.8413 31.8365 14.8413 31.7574V29.199H17.5466V31.7574C17.5466 31.8365 17.5902 31.8804 17.6687 31.8804H18.236C18.3145 31.8804 18.3668 31.8365 18.3668 31.7574V25.8493C18.3668 25.7702 18.3145 25.7263 18.236 25.7263H17.6687C17.5902 25.7263 17.5466 25.7702 17.5466 25.8493V28.4693H14.8413V25.8493C14.8413 25.7702 14.7977 25.7263 14.7191 25.7263H14.1519C14.0734 25.7263 14.021 25.7702 14.021 25.8493V31.7574C14.021 31.8365 14.0734 31.8804 14.1519 31.8804Z" fill="white"/>
<path d="M19.9128 31.8804H20.48C20.5586 31.8804 20.6022 31.8365 20.6022 31.7574V25.8493C20.6022 25.7702 20.5586 25.7263 20.48 25.7263H19.9128C19.8343 25.7263 19.7819 25.7702 19.7819 25.8493V31.7574C19.7819 31.8365 19.8343 31.8804 19.9128 31.8804Z" fill="white"/>
<path d="M25.6537 31.8804H26.3867C26.4652 31.8804 26.5089 31.8365 26.5089 31.7574V25.8493C26.5089 25.7702 26.4652 25.7263 26.3867 25.7263H25.8195C25.7409 25.7263 25.6886 25.7702 25.6886 25.8493V30.6584L23.0182 25.8142C22.9833 25.7526 22.931 25.7263 22.8612 25.7263H22.1456C22.067 25.7263 22.0147 25.7702 22.0147 25.8493V31.7574C22.0147 31.8365 22.067 31.8804 22.1456 31.8804H22.7128C22.7913 31.8804 22.835 31.8365 22.835 31.7574V26.9659L25.4966 31.7925C25.5315 31.8541 25.5838 31.8804 25.6537 31.8804Z" fill="white"/>
<path d="M28.0513 31.8804H28.6186C28.6971 31.8804 28.7407 31.8365 28.7407 31.7574V30.1573L29.4912 29.1902L31.4111 31.8013C31.4547 31.8629 31.4983 31.8804 31.5681 31.8804H32.2226C32.3274 31.8804 32.3623 31.8101 32.3012 31.7222L29.9799 28.5572L32.0568 25.8845C32.1266 25.7966 32.1005 25.7263 31.987 25.7263H31.2889C31.2278 25.7263 31.1755 25.7438 31.1318 25.7966L28.7407 29.0319V25.8493C28.7407 25.7702 28.6971 25.7263 28.6186 25.7263H28.0513C27.9728 25.7263 27.9204 25.7702 27.9204 25.8493V31.7574C27.9204 31.8365 27.9728 31.8804 28.0513 31.8804Z" fill="white"/>
<path d="M33.6008 31.9947C33.8888 31.9947 34.1244 31.7662 34.1244 31.4672C34.1244 31.1771 33.8888 30.9397 33.6008 30.9397C33.3128 30.9397 33.0772 31.1771 33.0772 31.4672C33.0772 31.7662 33.3128 31.9947 33.6008 31.9947Z" fill="white"/>
<path d="M35.416 31.9947C35.704 31.9947 35.9396 31.7662 35.9396 31.4672C35.9396 31.1771 35.704 30.9397 35.416 30.9397C35.128 30.9397 34.8924 31.1771 34.8924 31.4672C34.8924 31.7662 35.128 31.9947 35.416 31.9947Z" fill="white"/>
<path d="M37.1614 31.8804H37.7286C37.8072 31.8804 37.8508 31.8365 37.8508 31.7574V25.8493C37.8508 25.7702 37.8072 25.7263 37.7286 25.7263H37.1614C37.0829 25.7263 37.0305 25.7702 37.0305 25.8493V31.7574C37.0305 31.8365 37.0829 31.8804 37.1614 31.8804Z" fill="white"/>
<path d="M42.9022 31.8804H43.6353C43.7138 31.8804 43.7574 31.8365 43.7574 31.7574V25.8493C43.7574 25.7702 43.7138 25.7263 43.6353 25.7263H43.068C42.9895 25.7263 42.9371 25.7702 42.9371 25.8493V30.6584L40.2668 25.8142C40.2319 25.7526 40.1796 25.7263 40.1097 25.7263H39.3942C39.3156 25.7263 39.2633 25.7702 39.2633 25.8493V31.7574C39.2633 31.8365 39.3156 31.8804 39.3942 31.8804H39.9614C40.0399 31.8804 40.0836 31.8365 40.0836 31.7574V26.9659L42.7452 31.7925C42.7801 31.8541 42.8324 31.8804 42.9022 31.8804Z" fill="white"/>
<path d="M48.808 31.8804H49.541C49.6196 31.8804 49.6632 31.8365 49.6632 31.7574V25.8493C49.6632 25.7702 49.6196 25.7263 49.541 25.7263H48.9738C48.8953 25.7263 48.8429 25.7702 48.8429 25.8493V30.6584L46.1726 25.8142C46.1377 25.7526 46.0853 25.7263 46.0155 25.7263H45.2999C45.2214 25.7263 45.169 25.7702 45.169 25.8493V31.7574C45.169 31.8365 45.2214 31.8804 45.2999 31.8804H45.8672C45.9457 31.8804 45.9893 31.8365 45.9893 31.7574V26.9659L48.6509 31.7925C48.6858 31.8541 48.7382 31.8804 48.808 31.8804Z" fill="white"/>
<path d="M54.0331 31.9947C55.7784 31.9947 57.1572 30.6056 57.1572 28.8297C57.1572 27.045 55.7784 25.6559 54.0331 25.6559C52.2791 25.6559 50.9003 27.045 50.9003 28.8297C50.9003 30.6056 52.2791 31.9947 54.0331 31.9947ZM51.7293 28.8297C51.7293 27.4758 52.7241 26.456 54.0331 26.456C55.3421 26.456 56.3369 27.4758 56.3369 28.8297C56.3369 30.1749 55.3421 31.1947 54.0331 31.1947C52.7241 31.1947 51.7293 30.1749 51.7293 28.8297Z" fill="white"/>
<path d="M59.9326 31.8804H60.5696C60.6394 31.8804 60.7093 31.8453 60.7354 31.7749L62.8298 25.8757C62.8647 25.7878 62.8211 25.7263 62.7251 25.7263H62.1317C62.0619 25.7263 62.0182 25.7526 61.9921 25.8318L60.2555 30.8782L58.5189 25.8318C58.4927 25.7526 58.4491 25.7263 58.3705 25.7263H57.7771C57.6811 25.7263 57.6462 25.7878 57.6811 25.8757L59.7755 31.7749C59.8017 31.8453 59.8628 31.8804 59.9326 31.8804Z" fill="white"/>
<path d="M62.6688 31.8804H63.2622C63.3407 31.8804 63.3843 31.8541 63.4105 31.7749L63.812 30.5969H66.4823L66.8837 31.7749C66.9099 31.8541 66.9535 31.8804 67.0233 31.8804H67.6167C67.7127 31.8804 67.7563 31.8189 67.7214 31.731L65.6271 25.8318C65.6009 25.7614 65.5311 25.7263 65.4613 25.7263H64.8242C64.7544 25.7263 64.6933 25.7614 64.6672 25.8318L62.5728 31.731C62.5379 31.8189 62.5728 31.8804 62.6688 31.8804ZM64.065 29.8671L65.1471 26.7285L66.2292 29.8671H64.065Z" fill="white"/>
<path d="M69.2328 31.8804H69.8001C69.8786 31.8804 69.9222 31.8365 69.9222 31.7574V26.456H71.1963C71.2749 26.456 71.3185 26.412 71.3185 26.3329V25.8493C71.3185 25.7702 71.2749 25.7263 71.1963 25.7263H67.8366C67.7581 25.7263 67.7057 25.7702 67.7057 25.8493V26.3329C67.7057 26.412 67.7581 26.456 67.8366 26.456H69.1107V31.7574C69.1107 31.8365 69.1543 31.8804 69.2328 31.8804Z" fill="white"/>
<path d="M72.6982 31.8804H75.674C75.7525 31.8804 75.7962 31.8365 75.7962 31.7574V31.2738C75.7962 31.1947 75.7525 31.1419 75.674 31.1419H73.3876V29.0847H75.5518C75.6304 29.0847 75.674 29.0407 75.674 28.9616V28.4781C75.674 28.3989 75.6304 28.355 75.5518 28.355H73.3876V26.456H75.6653C75.7438 26.456 75.7962 26.412 75.7962 26.3329V25.8493C75.7962 25.7702 75.7438 25.7263 75.6653 25.7263H72.6982C72.6197 25.7263 72.5673 25.7702 72.5673 25.8493V31.7574C72.5673 31.8365 72.6197 31.8804 72.6982 31.8804Z" fill="white"/>
<path d="M77.3359 31.9947C77.6238 31.9947 77.8595 31.7662 77.8595 31.4672C77.8595 31.1771 77.6238 30.9397 77.3359 30.9397C77.0479 30.9397 76.8123 31.1771 76.8123 31.4672C76.8123 31.7662 77.0479 31.9947 77.3359 31.9947Z" fill="white"/>
<path d="M79.1511 31.9947C79.439 31.9947 79.6746 31.7662 79.6746 31.4672C79.6746 31.1771 79.439 30.9397 79.1511 30.9397C78.8631 30.9397 78.6275 31.1771 78.6275 31.4672C78.6275 31.7662 78.8631 31.9947 79.1511 31.9947Z" fill="white"/>
<path d="M83.7064 31.9947C84.5616 31.9947 85.251 31.6782 85.792 31.1683C85.8531 31.1068 85.8793 31.0452 85.8095 30.9749L85.4604 30.5881C85.4081 30.5353 85.347 30.5265 85.2772 30.5969C84.8496 30.9661 84.3434 31.1947 83.7151 31.1947C82.4061 31.1947 81.42 30.1924 81.42 28.8297C81.42 27.467 82.4061 26.456 83.7151 26.456C84.3434 26.456 84.8496 26.6846 85.2772 27.0538C85.347 27.1153 85.4081 27.1153 85.4604 27.0538L85.8095 26.6758C85.8706 26.5966 85.8531 26.5351 85.792 26.4736C85.251 25.9724 84.5616 25.6559 83.7064 25.6559C81.9174 25.6559 80.591 27.045 80.591 28.8297C80.591 30.6144 81.9174 31.9947 83.7064 31.9947Z" fill="white"/>
<path d="M89.8 31.9947C91.5453 31.9947 92.9241 30.6056 92.9241 28.8297C92.9241 27.045 91.5453 25.6559 89.8 25.6559C88.046 25.6559 86.6672 27.045 86.6672 28.8297C86.6672 30.6056 88.046 31.9947 89.8 31.9947ZM87.4962 28.8297C87.4962 27.4758 88.4911 26.456 89.8 26.456C91.109 26.456 92.1038 27.4758 92.1038 28.8297C92.1038 30.1749 91.109 31.1947 89.8 31.1947C88.4911 31.1947 87.4962 30.1749 87.4962 28.8297Z" fill="white"/>
<path d="M94.3016 31.8804H95.7589C97.862 31.8804 98.8656 30.5529 98.8656 28.8034C98.8656 27.0538 97.862 25.7263 95.7589 25.7263H94.3016C94.223 25.7263 94.1707 25.7702 94.1707 25.8493V31.7574C94.1707 31.8365 94.223 31.8804 94.3016 31.8804ZM94.991 31.1419V26.456H95.7415C97.321 26.456 98.0365 27.3351 98.0365 28.8034C98.0365 30.2716 97.321 31.1419 95.7415 31.1419H94.991Z" fill="white"/>
<path d="M100.19 31.8804H103.166C103.245 31.8804 103.288 31.8365 103.288 31.7574V31.2738C103.288 31.1947 103.245 31.1419 103.166 31.1419H100.88V29.0847H103.044C103.122 29.0847 103.166 29.0407 103.166 28.9616V28.4781C103.166 28.3989 103.122 28.355 103.044 28.355H100.88V26.456H103.157C103.236 26.456 103.288 26.412 103.288 26.3329V25.8493C103.288 25.7702 103.236 25.7263 103.157 25.7263H100.19C100.112 25.7263 100.059 25.7702 100.059 25.8493V31.7574C100.059 31.8365 100.112 31.8804 100.19 31.8804Z" fill="white"/>
<path d="M104.828 31.9947C105.116 31.9947 105.352 31.7662 105.352 31.4672C105.352 31.1771 105.116 30.9397 104.828 30.9397C104.54 30.9397 104.304 31.1771 104.304 31.4672C104.304 31.7662 104.54 31.9947 104.828 31.9947Z" fill="white"/>
<path d="M106.643 31.9947C106.931 31.9947 107.167 31.7662 107.167 31.4672C107.167 31.1771 106.931 30.9397 106.643 30.9397C106.355 30.9397 106.12 31.1771 106.12 31.4672C106.12 31.7662 106.355 31.9947 106.643 31.9947Z" fill="white"/>
<path d="M111.495 31.8804H112.097C112.202 31.8804 112.246 31.8189 112.185 31.7222L110.727 29.5243C111.67 29.3133 112.15 28.6011 112.15 27.6604C112.15 26.5263 111.452 25.7263 110.099 25.7263H108.388C108.31 25.7263 108.258 25.7702 108.258 25.8493V31.7574C108.258 31.8365 108.31 31.8804 108.388 31.8804H108.956C109.034 31.8804 109.078 31.8365 109.078 31.7574V29.5946H109.916L111.338 31.7925C111.373 31.8541 111.425 31.8804 111.495 31.8804ZM109.078 28.8649V26.456H110.047C110.771 26.456 111.356 26.7637 111.356 27.6604C111.356 28.5572 110.771 28.8649 110.047 28.8649H109.078Z" fill="white"/>
<path d="M113.493 31.8804H116.469C116.547 31.8804 116.591 31.8365 116.591 31.7574V31.2738C116.591 31.1947 116.547 31.1419 116.469 31.1419H114.183V29.0847H116.347C116.425 29.0847 116.469 29.0407 116.469 28.9616V28.4781C116.469 28.3989 116.425 28.355 116.347 28.355H114.183V26.456H116.46C116.539 26.456 116.591 26.412 116.591 26.3329V25.8493C116.591 25.7702 116.539 25.7263 116.46 25.7263H113.493C113.415 25.7263 113.362 25.7702 113.362 25.8493V31.7574C113.362 31.8365 113.415 31.8804 113.493 31.8804Z" fill="white"/>
<path d="M118.061 31.8804H118.628C118.707 31.8804 118.75 31.8365 118.75 31.7574V29.5946H119.771C121.124 29.5946 121.822 28.7946 121.822 27.6604C121.822 26.5263 121.124 25.7263 119.771 25.7263H118.061C117.982 25.7263 117.93 25.7702 117.93 25.8493V31.7574C117.93 31.8365 117.982 31.8804 118.061 31.8804ZM118.75 28.8649V26.456H119.719C120.443 26.456 121.028 26.7637 121.028 27.6604C121.028 28.5572 120.443 28.8649 119.719 28.8649H118.75Z" fill="white"/>
<path d="M123.106 31.8804H126.082C126.16 31.8804 126.204 31.8365 126.204 31.7574V31.2738C126.204 31.1947 126.16 31.1419 126.082 31.1419H123.795V29.0847H125.96C126.038 29.0847 126.082 29.0407 126.082 28.9616V28.4781C126.082 28.3989 126.038 28.355 125.96 28.355H123.795V26.456H126.073C126.152 26.456 126.204 26.412 126.204 26.3329V25.8493C126.204 25.7702 126.152 25.7263 126.073 25.7263H123.106C123.027 25.7263 122.975 25.7702 122.975 25.8493V31.7574C122.975 31.8365 123.027 31.8804 123.106 31.8804Z" fill="white"/>
<path d="M127.266 31.8804H127.859C127.938 31.8804 127.981 31.8541 128.007 31.7749L128.409 30.5969H131.079L131.481 31.7749C131.507 31.8541 131.55 31.8804 131.62 31.8804H132.214C132.31 31.8804 132.353 31.8189 132.318 31.731L130.224 25.8318C130.198 25.7614 130.128 25.7263 130.058 25.7263H129.421C129.351 25.7263 129.29 25.7614 129.264 25.8318L127.17 31.731C127.135 31.8189 127.17 31.8804 127.266 31.8804ZM128.662 29.8671L129.744 26.7285L130.826 29.8671H128.662Z" fill="white"/>
<path d="M133.83 31.8804H134.397C134.476 31.8804 134.519 31.8365 134.519 31.7574V26.456H135.793C135.872 26.456 135.915 26.412 135.915 26.3329V25.8493C135.915 25.7702 135.872 25.7263 135.793 25.7263H132.434C132.355 25.7263 132.303 25.7702 132.303 25.8493V26.3329C132.303 26.412 132.355 26.456 132.434 26.456H133.708V31.7574C133.708 31.8365 133.751 31.8804 133.83 31.8804Z" fill="white"/>
<path d="M4.20969 0.385078L0 5.89219H9.8645V21.559H16.3675V5.89219H23.8759L28.0855 0.385078H4.20969Z" fill="white"/>
<path d="M55.5602 0.385078H49.0886V7.88615H36.5852V0.385078H30.0507V21.559H36.5852V13.3933H49.0886V21.559H55.5602V0.385078Z" fill="white"/>
<path d="M66.1615 0.385078H59.6585V21.559H66.1615V0.385078Z" fill="white"/>
<path d="M91.5097 21.9071C93.3946 21.9071 95.0911 20.7361 95.0911 17.9192V0.385078H89.1535V12.8236L76.2731 1.17633C75.2364 0.226828 74.451 0.0369277 73.6656 0.0369277C71.8121 0.0369277 70.1157 1.17633 70.1157 3.99319V21.559H76.0218V9.1205L88.9022 20.7677C89.9075 21.7172 90.6929 21.9071 91.5097 21.9071Z" fill="white"/>
<path d="M156.618 21.9063L143.851 3.28984C142.965 1.99747 141.713 0.982025 139.82 0.982025C137.834 0.982025 136.582 2.08978 135.727 3.28984L122.624 21.9063H130.107L139.697 8.24396L143.363 13.6904C144.034 14.6751 144.89 15.9367 145.439 16.6752C144.462 16.6137 143.027 16.6137 141.805 16.6137H136.674L132.856 21.9063H156.618Z" fill="white"/>
<path d="M154.508 1.3205L150.415 6.67465H160.005V21.9063H166.328V6.67465H173.627L177.72 1.3205H154.508Z" fill="white"/>
<path d="M204.432 1.3205H198.14V8.61321H185.984V1.3205H179.631V21.9063H185.984V13.9674H198.14V21.9063H204.432V1.3205Z" fill="white"/>
<path d="M222.619 0.982025C212.662 0.982025 207.683 4.24374 207.683 11.598C207.683 18.9522 212.662 22.2447 222.619 22.2447C232.545 22.2447 237.554 18.9522 237.554 11.598C237.554 4.24374 232.545 0.982025 222.619 0.982025ZM222.619 16.8906C216.266 16.8906 213.975 16.029 213.975 11.598C213.975 7.16698 216.266 6.33616 222.619 6.33616C228.972 6.33616 231.262 7.16698 231.262 11.598C231.262 16.029 228.972 16.8906 222.619 16.8906Z" fill="white"/>
<path d="M261.455 22.2447C263.287 22.2447 264.937 21.1062 264.937 18.3676V1.3205H259.164V13.4135L246.641 2.08978C245.633 1.16665 244.87 0.982025 244.106 0.982025C242.304 0.982025 240.655 2.08978 240.655 4.82839V21.9063H246.397V9.81328L258.92 21.137C259.897 22.0601 260.661 22.2447 261.455 22.2447Z" fill="white"/>
<path d="M281.981 1.61415H287.536L277.414 23.9451H271.535L281.981 1.61415Z" fill="#AAC837"/>
<path d="M295.842 1.61415L304 12.7796L296.495 23.9451H288.985L296.495 12.7796L288.112 1.61415H295.842Z" fill="#AAC837"/>
<path d="M97.5638 0.484418H104.147V7.53008L101.283 11.1039L104.147 14.3841V21.7225H97.5638V0.484418Z" fill="white"/>
<path d="M103.095 11.1039L111.681 0H119.791L111.443 10.7144L119.791 22.2078H111.016L103.095 11.1039Z" fill="#AAC837"/>
</svg>
