<svg width="240" height="84" viewBox="0 0 240 84" fill="none" xmlns="http://www.w3.org/2000/svg">
<g id="Artboard 1 1">
<path id="Vector" fill-rule="evenodd" clip-rule="evenodd" d="M66.2833 16.7085C68.3458 16.7085 70.0167 18.3793 70.0167 20.446C70.0167 22.5127 68.3458 24.1793 66.2833 24.1793C64.2208 24.1793 62.55 22.5085 62.55 20.446C62.55 18.3835 64.2208 16.7085 66.2833 16.7085Z" fill="#ABCA37"/>
<path id="Vector_2" fill-rule="evenodd" clip-rule="evenodd" d="M69.2875 32.8416V53.9333H62.55V27.2625H64.45C67.1125 27.2625 69.2875 29.4416 69.2875 32.1V32.8375V32.8416Z" fill="#ABCA37"/>
<path id="Vector_3" fill-rule="evenodd" clip-rule="evenodd" d="M74.8083 3.48315C78.3208 3.48315 81.1667 6.32899 81.1667 9.84149C81.1667 13.354 78.3208 16.1998 74.8083 16.1998C71.2958 16.1998 68.45 13.354 68.45 9.84149C68.45 6.32899 71.2958 3.48315 74.8083 3.48315Z" fill="#ABCA37"/>
<path id="Vector_4" fill-rule="evenodd" clip-rule="evenodd" d="M117.454 79.1917C116.342 79.1917 115.783 78.6084 115.783 77.4417V72.55H114.546V71.5292H115.783V69.4875H116.958V71.5292H118.475V72.55H116.958V77.1917C116.958 77.4792 117.021 77.7125 117.15 77.8875C117.279 78.0625 117.463 78.15 117.7 78.15C118.029 78.15 118.292 78.0417 118.488 77.825L118.829 78.7084C118.488 79.0292 118.029 79.1875 117.45 79.1875L117.454 79.1917ZM126.325 79.0042H125.163V74.0834C125.163 73.4542 125.017 73.0125 124.729 72.7584C124.442 72.5042 124.021 72.3792 123.475 72.3792C123.054 72.3792 122.638 72.4917 122.229 72.7209C121.821 72.95 121.504 73.2209 121.279 73.5417V79.0042H120.117V68.6792H121.279V72.6125C121.558 72.2625 121.938 71.9625 122.425 71.7167C122.908 71.4709 123.417 71.3459 123.942 71.3459C125.529 71.3459 126.325 72.1417 126.325 73.7292V79.0084V79.0042ZM129.783 70.2375C129.633 70.3875 129.45 70.4625 129.233 70.4625C129.017 70.4625 128.829 70.3875 128.675 70.2375C128.521 70.0875 128.442 69.9042 128.442 69.6875C128.442 69.4709 128.521 69.2834 128.675 69.1292C128.829 68.975 129.017 68.8959 129.233 68.8959C129.45 68.8959 129.633 68.975 129.783 69.1292C129.933 69.2834 130.008 69.4709 130.008 69.6875C130.008 69.9042 129.933 70.0875 129.783 70.2375ZM129.804 79.0042H128.642V71.5292H129.804V79.0042ZM138.333 79.0042H137.188V74.1125C137.188 73.4834 137.042 73.0375 136.754 72.775C136.467 72.5125 136.046 72.3792 135.5 72.3792C135.067 72.3792 134.65 72.4917 134.246 72.7209C133.842 72.95 133.525 73.2209 133.288 73.5417V79.0042H132.125V71.5292H133.288V72.6125C133.575 72.2625 133.962 71.9625 134.45 71.7167C134.933 71.4709 135.442 71.3459 135.967 71.3459C137.546 71.3459 138.333 72.15 138.333 73.7584V79.0042ZM147.25 79.0042H145.762L143.083 75.6459L141.829 76.8667V79.0042H140.667V68.6792H141.829V75.5042L145.762 71.525H147.233L143.921 74.9167L147.25 79.0042ZM149.767 70.2375C149.617 70.3875 149.433 70.4625 149.217 70.4625C149 70.4625 148.813 70.3875 148.658 70.2375C148.504 70.0875 148.425 69.9042 148.425 69.6875C148.425 69.4709 148.504 69.2834 148.658 69.1292C148.813 68.975 149 68.8959 149.217 68.8959C149.433 68.8959 149.617 68.975 149.767 69.1292C149.917 69.2834 149.992 69.4709 149.992 69.6875C149.992 69.9042 149.917 70.0875 149.767 70.2375ZM149.792 79.0042H148.629V71.5292H149.792V79.0042ZM158.321 79.0042H157.175V74.1125C157.175 73.4834 157.029 73.0375 156.742 72.775C156.454 72.5125 156.033 72.3792 155.488 72.3792C155.054 72.3792 154.638 72.4917 154.233 72.7209C153.829 72.95 153.512 73.2209 153.275 73.5417V79.0042H152.113V71.5292H153.275V72.6125C153.562 72.2625 153.95 71.9625 154.437 71.7167C154.921 71.4709 155.429 71.3459 155.954 71.3459C157.533 71.3459 158.321 72.15 158.321 73.7584V79.0042ZM163.663 82.0375C163.013 82.0375 162.454 81.9542 161.992 81.7917C161.529 81.625 161.079 81.3334 160.646 80.9084L161.233 80.0709C161.8 80.7417 162.613 81.0792 163.663 81.0792C164.342 81.0792 164.917 80.9 165.379 80.5459C165.842 80.1917 166.075 79.6417 166.075 78.8959V77.7667C165.787 78.1709 165.421 78.4917 164.975 78.7334C164.529 78.975 164.058 79.0959 163.55 79.0959C162.558 79.0959 161.758 78.75 161.142 78.05C160.529 77.3542 160.221 76.4125 160.221 75.225C160.221 74.0375 160.529 73.0959 161.142 72.3917C161.754 71.6917 162.558 71.3375 163.55 71.3375C164.542 71.3375 165.425 71.775 166.075 72.6542V71.525H167.237V78.8917C167.237 79.9834 166.9 80.7834 166.225 81.2834C165.55 81.7834 164.696 82.0334 163.663 82.0334V82.0375ZM163.85 78.0584C164.292 78.0584 164.721 77.9417 165.133 77.7084C165.546 77.475 165.862 77.1917 166.079 76.85V73.5667C165.862 73.2375 165.546 72.9542 165.133 72.725C164.721 72.4917 164.292 72.375 163.85 72.375C163.108 72.375 162.521 72.6375 162.083 73.1625C161.65 73.6875 161.433 74.375 161.433 75.2209C161.433 76.0667 161.65 76.7375 162.083 77.2625C162.517 77.7875 163.104 78.05 163.85 78.05V78.0584ZM176.958 79.1875C175.833 79.1875 174.917 78.825 174.204 78.0959C173.492 77.3667 173.138 76.4209 173.138 75.2542C173.138 74.1625 173.488 73.2334 174.192 72.475C174.892 71.7167 175.771 71.3375 176.825 71.3375C177.929 71.3375 178.804 71.7167 179.45 72.475C180.096 73.2334 180.417 74.1917 180.417 75.3459V75.6417H174.379C174.429 76.375 174.696 76.9875 175.175 77.4834C175.654 77.9792 176.283 78.225 177.054 78.225C177.983 78.225 178.758 77.9042 179.375 77.2667L179.933 78.025C179.137 78.8 178.15 79.1875 176.962 79.1875H176.958ZM179.263 74.775C179.254 74.1459 179.038 73.575 178.613 73.0667C178.188 72.5542 177.588 72.3 176.8 72.3C176.058 72.3 175.471 72.5542 175.042 73.0584C174.613 73.5625 174.383 74.1375 174.354 74.775H179.263ZM185.546 79H184.275L181.163 71.525H182.433L184.908 77.6542L187.4 71.525H188.654L185.542 79H185.546ZM193.254 79.1875C192.129 79.1875 191.213 78.825 190.5 78.0959C189.788 77.3667 189.433 76.4209 189.433 75.2542C189.433 74.1625 189.783 73.2334 190.488 72.475C191.188 71.7167 192.067 71.3375 193.121 71.3375C194.175 71.3375 195.1 71.7167 195.746 72.475C196.392 73.2334 196.712 74.1917 196.712 75.3459V75.6417H190.675C190.725 76.375 190.992 76.9875 191.471 77.4834C191.95 77.9792 192.579 78.225 193.35 78.225C194.279 78.225 195.054 77.9042 195.671 77.2667L196.229 78.025C195.433 78.8 194.442 79.1875 193.258 79.1875H193.254ZM195.563 74.775C195.554 74.1459 195.338 73.575 194.913 73.0667C194.492 72.5542 193.888 72.3 193.1 72.3C192.358 72.3 191.771 72.5542 191.342 73.0584C190.913 73.5625 190.683 74.1375 190.654 74.775H195.563ZM199.742 79H198.579V71.525H199.742V72.7167C200.454 71.8084 201.283 71.3542 202.233 71.3542V72.5459C202.046 72.525 201.9 72.5167 201.783 72.5167C201.421 72.5167 201.033 72.6375 200.621 72.8792C200.208 73.1209 199.912 73.3959 199.737 73.7084V79H199.742ZM203.288 81.925L203.458 80.8709C203.646 80.9542 203.854 80.9959 204.092 80.9959C204.358 80.9959 204.583 80.9375 204.758 80.825C204.933 80.7125 205.083 80.5042 205.208 80.2042L205.704 79.075L202.579 71.5209H203.85L206.325 77.65L208.817 71.5209H210.071L206.325 80.5125C205.912 81.5042 205.179 82.0084 204.129 82.0292C203.808 82.0292 203.529 81.9917 203.292 81.9209L203.288 81.925ZM216.446 76.9709C216.654 77.3 216.962 77.5792 217.383 77.8084C217.8 78.0334 218.237 78.15 218.692 78.15C219.425 78.15 220.008 77.8834 220.442 77.3459C220.875 76.8084 221.092 76.1167 221.092 75.2709C221.092 74.425 220.875 73.7292 220.442 73.1875C220.008 72.6459 219.425 72.375 218.692 72.375C218.237 72.375 217.8 72.4917 217.383 72.725C216.967 72.9584 216.654 73.2417 216.446 73.5834V76.9709ZM216.446 79H215.283V68.675H216.446V72.6542C217.096 71.775 217.938 71.3375 218.971 71.3375C220.004 71.3375 220.762 71.6959 221.379 72.4125C221.992 73.1292 222.3 74.0834 222.3 75.2667C222.3 76.45 221.992 77.4167 221.379 78.1209C220.767 78.8292 219.963 79.1834 218.971 79.1834C217.929 79.1834 217.087 78.75 216.446 77.8834V78.9959V79ZM225.321 70.2334C225.171 70.3834 224.988 70.4584 224.771 70.4584C224.554 70.4584 224.367 70.3834 224.212 70.2334C224.058 70.0834 223.979 69.9 223.979 69.6834C223.979 69.4667 224.058 69.2792 224.212 69.125C224.367 68.9709 224.554 68.8917 224.771 68.8917C224.988 68.8917 225.171 68.9709 225.321 69.125C225.471 69.2792 225.546 69.4667 225.546 69.6834C225.546 69.9 225.471 70.0834 225.321 70.2334ZM225.346 79H224.183V71.525H225.346V79ZM229.571 79.1875C228.458 79.1875 227.9 78.6042 227.9 77.4375V72.5459H226.662V71.525H227.9V69.4834H229.075V71.525H230.592V72.5459H229.075V77.1875C229.075 77.475 229.142 77.7084 229.267 77.8834C229.396 78.0584 229.579 78.1459 229.817 78.1459C230.146 78.1459 230.408 78.0375 230.604 77.8209L230.946 78.7042C230.604 79.025 230.146 79.1834 229.567 79.1834L229.571 79.1875Z" fill="white" fill-opacity="0.6"/>
<path id="Vector_5" fill-rule="evenodd" clip-rule="evenodd" d="M140.446 16.7085C142.417 16.7085 144.017 18.3085 144.017 20.2793C144.017 22.2502 142.421 23.846 140.446 23.846C138.471 23.846 136.875 22.2502 136.875 20.2793C136.875 18.3085 138.471 16.7085 140.446 16.7085ZM214.179 38.2877H225.562V38.0877C225.562 34.3918 223.7 32.546 219.971 32.546C216.242 32.546 214.483 34.4627 214.179 38.2877ZM219.971 27.2668C228.071 27.2668 232.117 31.396 232.117 39.6585C232.117 40.7585 232.037 41.8627 231.883 42.9627H214.179C214.179 46.7252 216.937 48.6085 222.458 48.6085C223.229 48.6085 223.996 48.5877 224.767 48.546H226.4C228.55 48.546 230.329 50.0543 230.542 52.1335V53.1752C228.183 53.6877 225.321 53.9377 221.958 53.9377C212.283 53.9377 207.454 49.396 207.454 40.3002C207.454 31.2043 211.625 27.2668 219.975 27.2668H219.971ZM82.9292 31.1793C84.6375 29.4293 86.5125 28.2668 88.5458 27.6918C89.5458 27.4085 90.5833 27.2668 91.6583 27.2668C97.9792 27.2668 101.133 30.5543 101.133 37.1168V53.9377H94.4042V37.1168C94.4042 34.646 93.3667 33.2085 91.2958 32.8168L91.2417 32.8085H91.2375L91.2083 32.8043H91.1917L91.1125 32.7877H91.0917L91.025 32.7752L90.9208 32.7627H90.8958L90.8042 32.7502H90.7625L90.6708 32.7377H90.6292L90.5375 32.7252H90.5208L90.4208 32.7168H90.3917L90.275 32.7127H90.2708C90.1833 32.7127 90.0917 32.7085 90.0042 32.7085C89.9375 32.7085 89.875 32.7085 89.8083 32.7085H89.7875H89.7H89.6042L89.575 32.7127H89.4958L89.3958 32.721H89.3208L89.2625 32.7335L89.125 32.746L89.0625 32.7543L88.9875 32.7627L88.9 32.7752H88.8708L88.8292 32.7835C88.7625 32.7918 88.7 32.8043 88.6333 32.8127L88.5833 32.821L88.5458 32.8293C88.4458 32.846 88.3458 32.8668 88.2458 32.8877L88.1792 32.9043L88.1125 32.921L87.9625 32.9585L87.9083 32.971L87.725 33.021L87.6833 33.0335H87.6708L87.575 33.0668L87.45 33.1085H87.4375C87.3667 33.1335 87.3 33.1585 87.2292 33.1835C86.0042 33.6085 84.8 34.321 83.6125 35.321V53.9377H76.875V27.2668H78.5083C80.7958 27.2668 82.6667 29.1377 82.6667 31.4252V31.4752C82.7417 31.3752 82.825 31.271 82.925 31.1752L82.9292 31.1793ZM174.937 32.846V53.9377H168.2V27.2668H170.1C172.762 27.2668 174.937 29.446 174.937 32.1043V32.8418V32.846ZM29.0667 22.4835V23.5502H18.5417V53.9335H11.7333V23.5543H6.02499C3.37499 23.5418 1.20833 21.371 1.20833 18.7168V17.6502H24.25C26.9 17.6627 29.0667 19.8335 29.0667 22.4877V22.4835ZM149.775 22.946H151.408C153.696 22.946 155.567 24.8168 155.567 27.1043V27.2627H157.637C160.3 27.2627 162.475 29.4418 162.475 32.1002V32.596H156.508V44.8668C156.508 47.246 157.492 48.4918 159.462 48.596H159.471C159.55 48.6002 159.629 48.6043 159.708 48.6043C162.129 48.7335 164.071 50.7585 164.071 53.2085V53.9377H156.479C152.008 53.9377 149.767 51.546 149.767 46.7502V22.9502L149.775 22.946ZM143.812 32.8418V53.9335H137.075V27.2627H138.975C141.637 27.2627 143.812 29.4418 143.812 32.1002V32.8377V32.8418ZM114.221 23.3918C114.221 20.7293 112.046 18.5543 109.383 18.5543H107.483V53.9377H114.221V40.6043L124.967 53.9377H133.196L122.45 40.6043L133.196 27.271H124.967L114.221 40.6043V23.396V23.3918ZM33.1875 53.9377V17.6085V17.646H35.0875C37.75 17.646 39.925 19.8252 39.925 22.4835V23.221V30.6627C42.0208 28.4002 44.7 27.2627 47.9708 27.2627C54.2917 27.2627 57.4458 30.5502 57.4458 37.1127V53.9335H50.7167V37.1127C50.7167 34.1752 49.25 32.7002 46.3208 32.7002C44.1375 32.7002 42.0042 33.5668 39.9208 35.321V53.9377H33.1833H33.1875ZM178.108 27.2668H180.042C182.704 27.2668 185.9 29.221 186.887 32.071L191.696 45.9043L196.437 32.2585C197.375 29.5543 200.983 27.2627 203.646 27.2627H205.546L194.7 53.9335H188.3L178.112 27.2627L178.108 27.2668ZM171.567 16.7085C173.537 16.7085 175.137 18.3085 175.137 20.2793C175.137 22.2502 173.542 23.846 171.567 23.846C169.592 23.846 167.996 22.2502 167.996 20.2793C167.996 18.3085 169.596 16.7085 171.567 16.7085Z" fill="white"/>
</g>
</svg>
