<svg width="871" height="612" viewBox="0 0 871 612" fill="none" xmlns="http://www.w3.org/2000/svg">
<g clip-path="url(#clip0_1_118)">
<g opacity="0.95">
<path d="M-174.276 569.02L-174.276 699.681M-174.276 569.02L-63.6875 631.53L-63.6875 699.681M-174.276 569.02L-63.6875 507.449M47.393 569.02L47.393 699.681M47.393 569.02L156.999 507.449M47.393 569.02L156.999 631.53M156.999 507.449L269.554 569.02M156.999 507.449V386.188M269.554 569.02L156.999 631.53M269.554 569.02L379.652 507.449M156.999 631.53V711.431M156.999 386.188L269.554 447.758M156.999 386.188L269.554 325.087M269.554 447.758L269.554 699.681M269.554 447.758L379.652 386.188M379.652 507.449V386.188M379.652 507.449V631.53M379.652 507.449L489.257 569.02M379.652 507.449L489.257 447.758M379.652 386.188L269.554 325.087M379.652 386.188L489.257 447.758M379.652 386.188L379.652 262.107M269.554 325.087L379.652 262.107M269.554 325.087L156.999 262.107L156.999 140.845M269.554 325.087L269.554 201.946M379.652 631.53L254.317 699.681M379.652 631.53L489.257 692.21M510.392 703.911L489.257 692.21M489.257 569.02V447.758M489.257 569.02L600.338 507.449M489.257 569.02V692.21M489.257 447.758L600.338 386.188L600.338 262.107M489.257 447.758L489.257 325.087M489.257 447.758L600.338 507.449M489.257 325.087L379.652 262.107M489.257 325.087L600.338 262.107M379.652 262.107V140.845M379.652 262.107L489.257 201.946L600.338 262.107M269.554 201.946L156.999 140.845M269.554 201.946L379.652 140.845M156.999 140.845L269.554 80.6848L379.652 140.845M600.338 507.449L710.927 447.758L822.008 507.449M600.338 507.449L710.927 569.02M600.338 507.449V631.53M489.257 699.681V692.21M822.008 507.449L710.927 569.02M822.008 507.449V631.53M710.927 569.02V692.21M600.338 631.53L489.257 692.21M600.338 631.53L710.927 692.21M710.927 692.21L822.008 631.53M822.008 631.53L944.884 699.681" stroke="#A5A5A5" stroke-opacity="0.3" stroke-width="4.51129"/>
<path d="M-63.6874 631.53L-63.6874 699.681M47.3931 569.02H269.554L379.652 507.449L489.258 569.02V447.759L600.338 386.188L600.338 331.842V262.107L489.258 201.946L379.652 262.107L269.554 325.087L269.554 201.946L156.999 140.845L269.554 80.6848" stroke="#4F6400" stroke-width="4.51129"/>
<ellipse cx="46.901" cy="569.019" rx="5.89808" ry="5.64006" fill="#CBFF00"/>
<ellipse cx="270.045" cy="569.02" rx="5.89808" ry="5.64006" fill="#CBFF00"/>
<ellipse cx="379.158" cy="507.919" rx="5.89808" ry="5.64006" fill="#CBFF00"/>
<ellipse cx="489.257" cy="569.02" rx="5.89808" ry="5.64006" fill="#CBFF00"/>
<ellipse cx="489.256" cy="446.818" rx="5.89808" ry="5.64006" fill="#CBFF00"/>
<ellipse cx="600.337" cy="386.658" rx="5.89808" ry="5.64006" fill="#CBFF00"/>
<ellipse cx="489.257" cy="202.416" rx="5.89808" ry="5.64006" fill="#CBFF00"/>
<ellipse cx="600.337" cy="263.516" rx="5.89808" ry="5.64006" fill="#CBFF00"/>
<ellipse cx="269.062" cy="325.557" rx="5.89808" ry="5.64006" fill="#CBFF00"/>
<ellipse cx="380.142" cy="261.636" rx="5.89808" ry="5.64006" fill="#CBFF00"/>
<ellipse cx="269.061" cy="203.356" rx="5.89808" ry="5.64006" fill="#CBFF00"/>
<ellipse cx="156.998" cy="141.315" rx="5.89808" ry="5.64006" fill="#CBFF00"/>
<ellipse cx="268.078" cy="81.1545" rx="7.86411" ry="7.52007" fill="#CBFF00"/>
<path d="M282.91 81.1544C282.91 88.8635 276.35 95.2549 268.078 95.2549C259.807 95.2549 253.247 88.8635 253.247 81.1544C253.247 73.4453 259.807 67.054 268.078 67.054C276.35 67.054 282.91 73.4453 282.91 81.1544Z" stroke="#8CB000" stroke-width="3.75941"/>
<path d="M298.639 81.1547C298.639 97.1702 285.037 110.295 268.079 110.295C251.121 110.295 237.519 97.1702 237.519 81.1547C237.519 65.1391 251.121 52.0141 268.079 52.0141C285.037 52.0141 298.639 65.1391 298.639 81.1547Z" stroke="#4F6400" stroke-width="3.75941"/>
<rect x="288.722" y="590.64" width="46.2016" height="6.58007" fill="#4F6400"/>
<rect x="480.409" y="590.64" width="55.0487" height="6.58007" fill="#4F6400"/>
</g>
<rect x="40.933" y="543.401" width="56.0317" height="6.58007" fill="#4F6400"/>
<path d="M41.7849 533.137C41.7849 536.033 43.6729 537.361 45.9769 537.361C48.2809 537.361 50.1849 536.033 50.1849 533.137V526.097H48.7289V533.153C48.7289 535.201 47.6409 536.081 45.9929 536.081C44.3449 536.081 43.2409 535.201 43.2409 533.153V526.097H41.7849V533.137ZM59.0298 537.249H60.4698V532.081C60.4698 529.569 58.9178 528.321 56.8858 528.321C55.7018 528.321 54.6458 528.817 54.0698 529.729V528.481H52.6138V537.249H54.0698V532.401C54.0698 530.513 55.0938 529.585 56.5818 529.585C58.0538 529.585 59.0298 530.497 59.0298 532.289V537.249ZM62.3042 532.833C62.3042 535.553 64.1122 537.393 66.4642 537.393C68.0642 537.393 69.2002 536.577 69.7282 535.601V537.249H71.2002V525.409H69.7282V530.049C69.1202 529.041 67.8562 528.337 66.4802 528.337C64.1122 528.337 62.3042 530.097 62.3042 532.833ZM69.7282 532.849C69.7282 534.913 68.3522 536.113 66.7522 536.113C65.1522 536.113 63.7922 534.897 63.7922 532.833C63.7922 530.769 65.1522 529.601 66.7522 529.601C68.3522 529.601 69.7282 530.817 69.7282 532.849ZM77.3887 529.569C78.8927 529.569 80.1727 530.513 80.1567 532.225H74.6207C74.7807 530.513 75.9647 529.569 77.3887 529.569ZM81.4847 534.545H79.9167C79.5967 535.489 78.7647 536.161 77.4527 536.161C75.9647 536.161 74.7167 535.185 74.6047 533.409H81.6127C81.6447 533.105 81.6607 532.849 81.6607 532.529C81.6607 530.129 79.9967 528.337 77.4527 528.337C74.8927 528.337 73.1167 530.081 73.1167 532.849C73.1167 535.633 74.9567 537.393 77.4527 537.393C79.6287 537.393 81.0367 536.145 81.4847 534.545ZM85.0386 532.481C85.0386 530.449 86.0946 529.825 87.4866 529.825H87.8706V528.321C86.4786 528.321 85.5346 528.929 85.0386 529.905V528.481H83.5826V537.249H85.0386V532.481ZM95.8553 534.865C95.7913 531.729 90.7033 532.865 90.7033 530.785C90.7033 530.081 91.3433 529.569 92.4153 529.569C93.5833 529.569 94.2553 530.209 94.3193 531.089H95.7753C95.6793 529.377 94.3993 528.337 92.4633 528.337C90.5113 528.337 89.2473 529.441 89.2473 530.785C89.2473 534.049 94.4313 532.913 94.4313 534.865C94.4313 535.585 93.7913 536.161 92.6393 536.161C91.4073 536.161 90.6553 535.521 90.5753 534.673H89.0713C89.1673 536.273 90.6073 537.393 92.6553 537.393C94.5913 537.393 95.8553 536.305 95.8553 534.865ZM98.2307 534.849C98.2307 536.609 99.1107 537.249 100.663 537.249H101.975V536.017H100.903C100.007 536.017 99.6867 535.713 99.6867 534.849V529.681H101.975V528.481H99.6867V526.273H98.2307V528.481H97.0947V529.681H98.2307V534.849ZM103.195 532.833C103.195 535.553 105.003 537.393 107.339 537.393C108.955 537.393 110.091 536.561 110.619 535.617V537.249H112.091V528.481H110.619V530.081C110.107 529.169 108.987 528.337 107.355 528.337C105.003 528.337 103.195 530.097 103.195 532.833ZM110.619 532.849C110.619 534.913 109.243 536.113 107.643 536.113C106.043 536.113 104.683 534.897 104.683 532.833C104.683 530.769 106.043 529.601 107.643 529.601C109.243 529.601 110.619 530.817 110.619 532.849ZM120.967 537.249H122.407V532.081C122.407 529.569 120.855 528.321 118.823 528.321C117.639 528.321 116.583 528.817 116.007 529.729V528.481H114.551V537.249H116.007V532.401C116.007 530.513 117.031 529.585 118.519 529.585C119.991 529.585 120.967 530.497 120.967 532.289V537.249ZM124.242 532.833C124.242 535.553 126.05 537.393 128.402 537.393C130.002 537.393 131.138 536.577 131.666 535.601V537.249H133.138V525.409H131.666V530.049C131.058 529.041 129.794 528.337 128.418 528.337C126.05 528.337 124.242 530.097 124.242 532.833ZM131.666 532.849C131.666 534.913 130.29 536.113 128.69 536.113C127.09 536.113 125.73 534.897 125.73 532.833C125.73 530.769 127.09 529.601 128.69 529.601C130.29 529.601 131.666 530.817 131.666 532.849Z" fill="white"/>
<rect x="508.854" y="469.393" width="56.0317" height="6.58007" fill="#4F6400"/>
<path d="M509.738 463.241H511.194V452.089H509.738V463.241ZM513.131 458.825C513.131 461.545 514.939 463.385 517.291 463.385C518.891 463.385 520.027 462.569 520.555 461.593V463.241H522.027V451.401H520.555V456.041C519.947 455.033 518.683 454.329 517.307 454.329C514.939 454.329 513.131 456.089 513.131 458.825ZM520.555 458.841C520.555 460.905 519.179 462.105 517.579 462.105C515.979 462.105 514.619 460.889 514.619 458.825C514.619 456.761 515.979 455.593 517.579 455.593C519.179 455.593 520.555 456.809 520.555 458.841ZM528.216 455.561C529.72 455.561 531 456.505 530.984 458.217H525.448C525.608 456.505 526.792 455.561 528.216 455.561ZM532.312 460.537H530.744C530.424 461.481 529.592 462.153 528.28 462.153C526.792 462.153 525.544 461.177 525.432 459.401H532.44C532.472 459.097 532.488 458.841 532.488 458.521C532.488 456.121 530.824 454.329 528.28 454.329C525.72 454.329 523.944 456.073 523.944 458.841C523.944 461.625 525.784 463.385 528.28 463.385C530.456 463.385 531.864 462.137 532.312 460.537ZM533.866 458.825C533.866 461.545 535.674 463.385 538.01 463.385C539.626 463.385 540.762 462.553 541.29 461.609V463.241H542.762V454.473H541.29V456.073C540.778 455.161 539.658 454.329 538.026 454.329C535.674 454.329 533.866 456.089 533.866 458.825ZM541.29 458.841C541.29 460.905 539.914 462.105 538.314 462.105C536.714 462.105 535.354 460.889 535.354 458.825C535.354 456.761 536.714 455.593 538.314 455.593C539.914 455.593 541.29 456.809 541.29 458.841ZM545.542 460.841C545.542 462.601 546.422 463.241 547.974 463.241H549.286V462.009H548.214C547.318 462.009 546.998 461.705 546.998 460.841V455.673H549.286V454.473H546.998V452.265H545.542V454.473H544.406V455.673H545.542V460.841ZM554.778 455.561C556.282 455.561 557.562 456.505 557.546 458.217H552.01C552.17 456.505 553.354 455.561 554.778 455.561ZM558.874 460.537H557.306C556.986 461.481 556.154 462.153 554.842 462.153C553.354 462.153 552.106 461.177 551.994 459.401H559.002C559.034 459.097 559.05 458.841 559.05 458.521C559.05 456.121 557.386 454.329 554.842 454.329C552.282 454.329 550.506 456.073 550.506 458.841C550.506 461.625 552.346 463.385 554.842 463.385C557.018 463.385 558.426 462.137 558.874 460.537Z" fill="white"/>
<rect x="617.478" y="401.353" width="56.0317" height="6.58007" fill="#4F6400"/>
<path d="M621.834 384.05H618.362V395.202H621.834C625.498 395.202 627.754 393.106 627.754 389.65C627.754 386.194 625.498 384.05 621.834 384.05ZM619.818 394.002V385.234H621.834C624.746 385.234 626.266 386.93 626.266 389.65C626.266 392.37 624.746 394.002 621.834 394.002H619.818ZM633.403 387.522C634.907 387.522 636.187 388.466 636.171 390.178H630.635C630.795 388.466 631.979 387.522 633.403 387.522ZM637.499 392.498H635.931C635.611 393.442 634.779 394.114 633.467 394.114C631.979 394.114 630.731 393.138 630.619 391.362H637.627C637.659 391.058 637.675 390.802 637.675 390.482C637.675 388.082 636.011 386.29 633.467 386.29C630.907 386.29 629.131 388.034 629.131 390.802C629.131 393.586 630.971 395.346 633.467 395.346C635.643 395.346 637.051 394.098 637.499 392.498ZM645.901 392.818C645.837 389.682 640.749 390.818 640.749 388.738C640.749 388.034 641.389 387.522 642.461 387.522C643.629 387.522 644.301 388.162 644.365 389.042H645.821C645.725 387.33 644.445 386.29 642.509 386.29C640.557 386.29 639.293 387.394 639.293 388.738C639.293 392.002 644.477 390.866 644.477 392.818C644.477 393.538 643.837 394.114 642.685 394.114C641.453 394.114 640.701 393.474 640.621 392.626H639.117C639.213 394.226 640.653 395.346 642.701 395.346C644.637 395.346 645.901 394.258 645.901 392.818ZM647.956 395.202H649.412V386.434H647.956V395.202ZM648.708 385.01C649.236 385.01 649.668 384.578 649.668 384.018C649.668 383.458 649.236 383.026 648.708 383.026C648.148 383.026 647.716 383.458 647.716 384.018C647.716 384.578 648.148 385.01 648.708 385.01ZM651.35 390.786C651.35 393.506 653.158 395.346 655.51 395.346C657.11 395.346 658.246 394.498 658.774 393.554V395.394C658.774 397.266 657.606 398.258 656.054 398.258C654.614 398.258 653.574 397.538 653.254 396.482H651.814C652.102 398.354 653.75 399.522 656.054 399.522C658.63 399.522 660.246 397.81 660.246 395.394V386.434H658.774V388.034C658.262 387.09 657.11 386.29 655.51 386.29C653.158 386.29 651.35 388.05 651.35 390.786ZM658.774 390.802C658.774 392.866 657.398 394.066 655.798 394.066C654.198 394.066 652.838 392.85 652.838 390.786C652.838 388.722 654.198 387.554 655.798 387.554C657.398 387.554 658.774 388.77 658.774 390.802ZM669.122 395.202H670.562V390.034C670.562 387.522 669.01 386.274 666.978 386.274C665.794 386.274 664.738 386.77 664.162 387.682V386.434H662.706V395.202H664.162V390.354C664.162 388.466 665.186 387.538 666.674 387.538C668.146 387.538 669.122 388.45 669.122 390.242V395.202Z" fill="white"/>
<rect x="313.348" y="486.152" width="56.0317" height="6.58007" fill="#4F6400"/>
<path d="M320.568 476.864C320.568 478.08 319.704 478.8 318.264 478.8H315.688V474.864H318.216C319.64 474.864 320.568 475.632 320.568 476.864ZM320.28 471.856C320.28 472.992 319.496 473.664 318.136 473.664H315.688V470.048H318.104C319.528 470.048 320.28 470.752 320.28 471.856ZM322.024 477.008C322.024 475.632 321.032 474.464 319.816 474.256C320.888 473.904 321.768 473.088 321.768 471.68C321.768 470.128 320.584 468.848 318.232 468.848H314.232V480H318.392C320.696 480 322.024 478.688 322.024 477.008ZM325.501 475.232C325.501 473.2 326.557 472.576 327.949 472.576H328.333V471.072C326.941 471.072 325.997 471.68 325.501 472.656V471.232H324.045V480H325.501V475.232ZM329.469 475.584C329.469 478.304 331.277 480.144 333.613 480.144C335.229 480.144 336.365 479.312 336.893 478.368V480H338.365V471.232H336.893V472.832C336.381 471.92 335.261 471.088 333.629 471.088C331.277 471.088 329.469 472.848 329.469 475.584ZM336.893 475.6C336.893 477.664 335.517 478.864 333.917 478.864C332.317 478.864 330.957 477.648 330.957 475.584C330.957 473.52 332.317 472.352 333.917 472.352C335.517 472.352 336.893 473.568 336.893 475.6ZM340.826 480H342.282V471.232H340.826V480ZM341.578 469.808C342.106 469.808 342.538 469.376 342.538 468.816C342.538 468.256 342.106 467.824 341.578 467.824C341.018 467.824 340.586 468.256 340.586 468.816C340.586 469.376 341.018 469.808 341.578 469.808ZM351.179 480H352.619V474.832C352.619 472.32 351.067 471.072 349.035 471.072C347.851 471.072 346.795 471.568 346.219 472.48V471.232H344.763V480H346.219V475.152C346.219 473.264 347.243 472.336 348.731 472.336C350.203 472.336 351.179 473.248 351.179 475.04V480ZM361.302 477.616C361.238 474.48 356.15 475.616 356.15 473.536C356.15 472.832 356.79 472.32 357.862 472.32C359.03 472.32 359.702 472.96 359.766 473.84H361.222C361.126 472.128 359.846 471.088 357.91 471.088C355.958 471.088 354.694 472.192 354.694 473.536C354.694 476.8 359.878 475.664 359.878 477.616C359.878 478.336 359.238 478.912 358.086 478.912C356.854 478.912 356.102 478.272 356.022 477.424H354.518C354.614 479.024 356.054 480.144 358.102 480.144C360.038 480.144 361.302 479.056 361.302 477.616ZM363.677 477.6C363.677 479.36 364.557 480 366.109 480H367.421V478.768H366.349C365.453 478.768 365.133 478.464 365.133 477.6V472.432H367.421V471.232H365.133V469.024H363.677V471.232H362.541V472.432H363.677V477.6ZM377.505 475.6C377.505 472.832 375.569 471.088 373.073 471.088C370.593 471.088 368.641 472.832 368.641 475.6C368.641 478.384 370.529 480.144 373.009 480.144C375.505 480.144 377.505 478.384 377.505 475.6ZM370.129 475.6C370.129 473.392 371.521 472.352 373.057 472.352C374.561 472.352 376.017 473.392 376.017 475.6C376.017 477.824 374.529 478.864 373.009 478.864C371.489 478.864 370.129 477.824 370.129 475.6ZM380.876 475.232C380.876 473.2 381.932 472.576 383.324 472.576H383.708V471.072C382.316 471.072 381.372 471.68 380.876 472.656V471.232H379.42V480H380.876V475.232ZM398.044 480H399.484V474.832C399.484 472.32 397.932 471.072 395.932 471.072C394.588 471.072 393.34 471.76 392.828 473.024C392.252 471.712 391.052 471.072 389.612 471.072C388.46 471.072 387.42 471.568 386.844 472.496V471.232H385.388V480H386.844V475.168C386.844 473.28 387.852 472.336 389.324 472.336C390.764 472.336 391.724 473.248 391.724 475.04V480H393.164V475.168C393.164 473.28 394.172 472.336 395.644 472.336C397.084 472.336 398.044 473.248 398.044 475.04V480Z" fill="white"/>
<rect x="617.478" y="246.176" width="56.0317" height="6.58007" fill="#4F6400"/>
<path d="M621.834 228.872H618.362V240.024H621.834C625.498 240.024 627.754 237.928 627.754 234.472C627.754 231.016 625.498 228.872 621.834 228.872ZM619.818 238.824V230.056H621.834C624.746 230.056 626.266 231.752 626.266 234.472C626.266 237.192 624.746 238.824 621.834 238.824H619.818ZM633.403 232.344C634.907 232.344 636.187 233.288 636.171 235H630.635C630.795 233.288 631.979 232.344 633.403 232.344ZM637.499 237.32H635.931C635.611 238.264 634.779 238.936 633.467 238.936C631.979 238.936 630.731 237.96 630.619 236.184H637.627C637.659 235.88 637.675 235.624 637.675 235.304C637.675 232.904 636.011 231.112 633.467 231.112C630.907 231.112 629.131 232.856 629.131 235.624C629.131 238.408 630.971 240.168 633.467 240.168C635.643 240.168 637.051 238.92 637.499 237.32ZM638.557 231.256L641.997 240.024H643.693L647.133 231.256H645.581L642.861 238.68L640.125 231.256H638.557ZM652.293 232.344C653.797 232.344 655.077 233.288 655.061 235H649.525C649.685 233.288 650.869 232.344 652.293 232.344ZM656.389 237.32H654.821C654.501 238.264 653.669 238.936 652.357 238.936C650.869 238.936 649.621 237.96 649.509 236.184H656.517C656.549 235.88 656.565 235.624 656.565 235.304C656.565 232.904 654.901 231.112 652.357 231.112C649.797 231.112 648.021 232.856 648.021 235.624C648.021 238.408 649.861 240.168 652.357 240.168C654.533 240.168 655.941 238.92 656.389 237.32ZM658.487 240.024H659.943V228.184H658.487V240.024ZM670.745 235.624C670.745 232.856 668.809 231.112 666.313 231.112C663.833 231.112 661.881 232.856 661.881 235.624C661.881 238.408 663.769 240.168 666.249 240.168C668.745 240.168 670.745 238.408 670.745 235.624ZM663.369 235.624C663.369 233.416 664.761 232.376 666.297 232.376C667.801 232.376 669.257 233.416 669.257 235.624C669.257 237.848 667.769 238.888 666.249 238.888C664.729 238.888 663.369 237.848 663.369 235.624ZM674.115 232.872V231.256H672.659V244.184H674.115V238.408C674.659 239.304 675.795 240.168 677.395 240.168C679.747 240.168 681.555 238.328 681.555 235.608C681.555 232.872 679.747 231.112 677.395 231.112C675.795 231.112 674.643 231.944 674.115 232.872ZM680.067 235.608C680.067 237.672 678.707 238.888 677.091 238.888C675.507 238.888 674.115 237.688 674.115 235.624C674.115 233.592 675.507 232.376 677.091 232.376C678.707 232.376 680.067 233.544 680.067 235.608ZM696.128 240.024H697.568V234.856C697.568 232.344 696.016 231.096 694.016 231.096C692.672 231.096 691.424 231.784 690.912 233.048C690.336 231.736 689.136 231.096 687.696 231.096C686.544 231.096 685.504 231.592 684.928 232.52V231.256H683.472V240.024H684.928V235.192C684.928 233.304 685.936 232.36 687.408 232.36C688.848 232.36 689.808 233.272 689.808 235.064V240.024H691.248V235.192C691.248 233.304 692.256 232.36 693.728 232.36C695.168 232.36 696.128 233.272 696.128 235.064V240.024ZM703.684 232.344C705.188 232.344 706.468 233.288 706.452 235H700.916C701.076 233.288 702.26 232.344 703.684 232.344ZM707.78 237.32H706.212C705.892 238.264 705.06 238.936 703.748 238.936C702.26 238.936 701.012 237.96 700.9 236.184H707.908C707.94 235.88 707.956 235.624 707.956 235.304C707.956 232.904 706.292 231.112 703.748 231.112C701.188 231.112 699.412 232.856 699.412 235.624C699.412 238.408 701.252 240.168 703.748 240.168C705.924 240.168 707.332 238.92 707.78 237.32ZM716.294 240.024H717.734V234.856C717.734 232.344 716.182 231.096 714.15 231.096C712.966 231.096 711.91 231.592 711.334 232.504V231.256H709.878V240.024H711.334V235.176C711.334 233.288 712.358 232.36 713.846 232.36C715.318 232.36 716.294 233.272 716.294 235.064V240.024ZM720.432 237.624C720.432 239.384 721.312 240.024 722.864 240.024H724.176V238.792H723.104C722.208 238.792 721.888 238.488 721.888 237.624V232.456H724.176V231.256H721.888V229.048H720.432V231.256H719.296V232.456H720.432V237.624Z" fill="white"/>
<rect x="116.135" y="316.602" width="56.0317" height="6.58007" fill="#4F6400"/>
<path d="M117.019 310.451H118.475V299.299H117.019V310.451ZM121.276 308.051C121.276 309.811 122.156 310.451 123.708 310.451H125.02V309.219H123.948C123.052 309.219 122.732 308.915 122.732 308.051V302.883H125.02V301.683H122.732V299.475H121.276V301.683H120.14V302.883H121.276V308.051ZM130.512 302.771C132.016 302.771 133.296 303.715 133.28 305.427H127.744C127.904 303.715 129.088 302.771 130.512 302.771ZM134.608 307.747H133.04C132.72 308.691 131.888 309.363 130.576 309.363C129.088 309.363 127.84 308.387 127.728 306.611H134.736C134.768 306.307 134.784 306.051 134.784 305.731C134.784 303.331 133.12 301.539 130.576 301.539C128.016 301.539 126.24 303.283 126.24 306.051C126.24 308.835 128.08 310.595 130.576 310.595C132.752 310.595 134.16 309.347 134.608 307.747ZM138.162 305.683C138.162 303.651 139.218 303.027 140.61 303.027H140.994V301.523C139.602 301.523 138.658 302.131 138.162 303.107V301.683H136.706V310.451H138.162V305.683ZM142.131 306.035C142.131 308.755 143.939 310.595 146.275 310.595C147.891 310.595 149.027 309.763 149.555 308.819V310.451H151.027V301.683H149.555V303.283C149.043 302.371 147.923 301.539 146.291 301.539C143.939 301.539 142.131 303.299 142.131 306.035ZM149.555 306.051C149.555 308.115 148.179 309.315 146.579 309.315C144.979 309.315 143.619 308.099 143.619 306.035C143.619 303.971 144.979 302.803 146.579 302.803C148.179 302.803 149.555 304.019 149.555 306.051ZM153.807 308.051C153.807 309.811 154.687 310.451 156.239 310.451H157.551V309.219H156.479C155.583 309.219 155.263 308.915 155.263 308.051V302.883H157.551V301.683H155.263V299.475H153.807V301.683H152.671V302.883H153.807V308.051ZM159.315 310.451H160.771V301.683H159.315V310.451ZM160.067 300.259C160.595 300.259 161.027 299.827 161.027 299.267C161.027 298.707 160.595 298.275 160.067 298.275C159.507 298.275 159.075 298.707 159.075 299.267C159.075 299.827 159.507 300.259 160.067 300.259ZM171.573 306.051C171.573 303.283 169.637 301.539 167.141 301.539C164.661 301.539 162.709 303.283 162.709 306.051C162.709 308.835 164.597 310.595 167.077 310.595C169.573 310.595 171.573 308.835 171.573 306.051ZM164.197 306.051C164.197 303.843 165.589 302.803 167.125 302.803C168.629 302.803 170.085 303.843 170.085 306.051C170.085 308.275 168.597 309.315 167.077 309.315C165.557 309.315 164.197 308.275 164.197 306.051ZM179.903 310.451H181.343V305.283C181.343 302.771 179.791 301.523 177.759 301.523C176.575 301.523 175.519 302.019 174.943 302.931V301.683H173.487V310.451H174.943V305.603C174.943 303.715 175.967 302.787 177.455 302.787C178.927 302.787 179.903 303.699 179.903 305.491V310.451ZM190.026 308.067C189.962 304.931 184.874 306.067 184.874 303.987C184.874 303.283 185.514 302.771 186.586 302.771C187.754 302.771 188.426 303.411 188.49 304.291H189.946C189.85 302.579 188.57 301.539 186.634 301.539C184.682 301.539 183.418 302.643 183.418 303.987C183.418 307.251 188.602 306.115 188.602 308.067C188.602 308.787 187.962 309.363 186.81 309.363C185.578 309.363 184.826 308.723 184.746 307.875H183.242C183.338 309.475 184.778 310.595 186.826 310.595C188.762 310.595 190.026 309.507 190.026 308.067Z" fill="white"/>
<rect x="70.7749" y="120.84" width="56.0317" height="6.58007" fill="#4F6400"/>
<path d="M75.1308 103.536H71.6588V114.688H75.1308C78.7948 114.688 81.0508 112.592 81.0508 109.136C81.0508 105.68 78.7948 103.536 75.1308 103.536ZM73.1148 113.488V104.72H75.1308C78.0428 104.72 79.5628 106.416 79.5628 109.136C79.5628 111.856 78.0428 113.488 75.1308 113.488H73.1148ZM86.6993 107.008C88.2033 107.008 89.4833 107.952 89.4673 109.664H83.9313C84.0913 107.952 85.2753 107.008 86.6993 107.008ZM90.7953 111.984H89.2273C88.9073 112.928 88.0753 113.6 86.7633 113.6C85.2753 113.6 84.0273 112.624 83.9153 110.848H90.9233C90.9553 110.544 90.9713 110.288 90.9713 109.968C90.9713 107.568 89.3073 105.776 86.7633 105.776C84.2033 105.776 82.4273 107.52 82.4273 110.288C82.4273 113.072 84.2673 114.832 86.7633 114.832C88.9393 114.832 90.3473 113.584 90.7953 111.984ZM94.3492 107.536V105.92H92.8932V118.848H94.3492V113.072C94.8932 113.968 96.0292 114.832 97.6292 114.832C99.9812 114.832 101.789 112.992 101.789 110.272C101.789 107.536 99.9812 105.776 97.6292 105.776C96.0292 105.776 94.8772 106.608 94.3492 107.536ZM100.301 110.272C100.301 112.336 98.9412 113.552 97.3252 113.552C95.7412 113.552 94.3492 112.352 94.3492 110.288C94.3492 108.256 95.7412 107.04 97.3252 107.04C98.9412 107.04 100.301 108.208 100.301 110.272ZM103.706 114.688H105.162V102.848H103.706V114.688ZM115.963 110.288C115.963 107.52 114.027 105.776 111.531 105.776C109.051 105.776 107.099 107.52 107.099 110.288C107.099 113.072 108.987 114.832 111.467 114.832C113.963 114.832 115.963 113.072 115.963 110.288ZM108.587 110.288C108.587 108.08 109.979 107.04 111.515 107.04C113.019 107.04 114.475 108.08 114.475 110.288C114.475 112.512 112.987 113.552 111.467 113.552C109.947 113.552 108.587 112.512 108.587 110.288ZM121.206 113.024L118.454 105.92H116.838L120.374 114.592L118.646 118.816H120.15L125.43 105.92H123.926L121.206 113.024Z" fill="white"/>
<rect x="312.348" y="43.1518" width="56.0317" height="6.58007" fill="#4F6400"/>
<path d="M320.48 33.96C320.48 29.832 314.464 31.624 314.464 28.744C314.464 27.544 315.408 26.92 316.608 26.952C317.968 26.968 318.672 27.816 318.768 28.568H320.368C320.192 26.872 318.8 25.704 316.672 25.704C314.464 25.704 312.976 26.952 312.976 28.792C312.976 32.936 319.008 31.016 319.008 34.024C319.008 35.08 318.176 35.88 316.768 35.88C315.216 35.88 314.56 34.952 314.464 34.024H312.912C312.944 35.864 314.528 37.112 316.768 37.112C319.184 37.112 320.48 35.544 320.48 33.96ZM330.399 28.232H328.943V33.048C328.943 34.936 327.935 35.864 326.431 35.864C324.959 35.864 323.983 34.952 323.983 33.176V28.232H322.543V33.368C322.543 35.88 324.127 37.128 326.143 37.128C327.311 37.128 328.383 36.616 328.943 35.704V37H330.399V28.232ZM334.313 29.864V25.16H332.857V37H334.313V35.384C334.857 36.344 335.993 37.144 337.593 37.144C339.945 37.144 341.753 35.304 341.753 32.584C341.753 29.848 339.961 28.088 337.593 28.088C336.041 28.088 334.873 28.888 334.313 29.864ZM340.265 32.584C340.265 34.648 338.905 35.864 337.289 35.864C335.705 35.864 334.313 34.664 334.313 32.6C334.313 30.568 335.705 29.352 337.289 29.352C338.905 29.352 340.265 30.52 340.265 32.584ZM356.326 37H357.766V31.832C357.766 29.32 356.214 28.072 354.214 28.072C352.87 28.072 351.622 28.76 351.11 30.024C350.534 28.712 349.334 28.072 347.894 28.072C346.742 28.072 345.702 28.568 345.126 29.496V28.232H343.67V37H345.126V32.168C345.126 30.28 346.134 29.336 347.606 29.336C349.046 29.336 350.006 30.248 350.006 32.04V37H351.446V32.168C351.446 30.28 352.454 29.336 353.926 29.336C355.366 29.336 356.326 30.248 356.326 32.04V37ZM360.154 37H361.61V28.232H360.154V37ZM360.906 26.808C361.434 26.808 361.866 26.376 361.866 25.816C361.866 25.256 361.434 24.824 360.906 24.824C360.346 24.824 359.914 25.256 359.914 25.816C359.914 26.376 360.346 26.808 360.906 26.808ZM364.411 34.6C364.411 36.36 365.291 37 366.843 37H368.155V35.768H367.083C366.187 35.768 365.867 35.464 365.867 34.6V29.432H368.155V28.232H365.867V26.024H364.411V28.232H363.275V29.432H364.411V34.6Z" fill="white"/>
<rect x="483.787" y="170.974" width="56.0317" height="6.58007" fill="#4F6400"/>
<path d="M483.983 154.854H487.039V164.822H488.495V154.854H491.535V153.67H483.983V154.854ZM497.055 157.142C498.559 157.142 499.839 158.086 499.823 159.798H494.287C494.447 158.086 495.631 157.142 497.055 157.142ZM501.151 162.118H499.583C499.263 163.062 498.431 163.734 497.119 163.734C495.631 163.734 494.383 162.758 494.271 160.982H501.279C501.311 160.678 501.327 160.422 501.327 160.102C501.327 157.702 499.663 155.91 497.119 155.91C494.559 155.91 492.783 157.654 492.783 160.422C492.783 163.206 494.623 164.966 497.119 164.966C499.295 164.966 500.703 163.718 501.151 162.118ZM509.553 162.438C509.489 159.302 504.401 160.438 504.401 158.358C504.401 157.654 505.041 157.142 506.113 157.142C507.281 157.142 507.953 157.782 508.017 158.662H509.473C509.377 156.95 508.097 155.91 506.161 155.91C504.209 155.91 502.945 157.014 502.945 158.358C502.945 161.622 508.129 160.486 508.129 162.438C508.129 163.158 507.489 163.734 506.337 163.734C505.105 163.734 504.353 163.094 504.273 162.246H502.769C502.865 163.846 504.305 164.966 506.353 164.966C508.289 164.966 509.553 163.878 509.553 162.438ZM511.928 162.422C511.928 164.182 512.808 164.822 514.36 164.822H515.672V163.59H514.6C513.704 163.59 513.384 163.286 513.384 162.422V157.254H515.672V156.054H513.384V153.846H511.928V156.054H510.792V157.254H511.928V162.422ZM517.436 164.822H518.892V156.054H517.436V164.822ZM518.188 154.63C518.716 154.63 519.148 154.198 519.148 153.638C519.148 153.078 518.716 152.646 518.188 152.646C517.628 152.646 517.196 153.078 517.196 153.638C517.196 154.198 517.628 154.63 518.188 154.63ZM527.79 164.822H529.23V159.654C529.23 157.142 527.678 155.894 525.646 155.894C524.462 155.894 523.406 156.39 522.83 157.302V156.054H521.374V164.822H522.83V159.974C522.83 158.086 523.854 157.158 525.342 157.158C526.814 157.158 527.79 158.07 527.79 159.862V164.822ZM531.064 160.406C531.064 163.126 532.872 164.966 535.224 164.966C536.824 164.966 537.96 164.118 538.488 163.174V165.014C538.488 166.886 537.32 167.878 535.768 167.878C534.328 167.878 533.288 167.158 532.968 166.102H531.528C531.816 167.974 533.464 169.142 535.768 169.142C538.344 169.142 539.96 167.43 539.96 165.014V156.054H538.488V157.654C537.976 156.71 536.824 155.91 535.224 155.91C532.872 155.91 531.064 157.67 531.064 160.406ZM538.488 160.422C538.488 162.486 537.112 163.686 535.512 163.686C533.912 163.686 532.552 162.47 532.552 160.406C532.552 158.342 533.912 157.174 535.512 157.174C537.112 157.174 538.488 158.39 538.488 160.422Z" fill="white"/>
</g>
<defs>
<clipPath id="clip0_1_118">
<rect width="993" height="612" fill="white"/>
</clipPath>
</defs>
</svg>
